<?xml version="1.0" encoding="utf-8"?>
<!-- Generator: Adobe Illustrator 26.0.2, SVG Export Plug-In . SVG Version: 6.00 Build 0)  -->
<svg version="1.1" id="Layer_1" xmlns="http://www.w3.org/2000/svg" xmlns:xlink="http://www.w3.org/1999/xlink" x="0px" y="0px"
	 viewBox="0 0 378.4 99.4" style="enable-background:new 0 0 378.4 99.4;" xml:space="preserve">
<style type="text/css">
	.st0{fill:#B6B1A7;}
</style>
<g>
	<path class="st0" d="M9,10.4h20.9v8.5h-9.4V86h9.4v8.5H9V10.4z"/>
	<path class="st0" d="M53.4,71.7l-0.7,0.4l-0.4,4.4H40.9V20l-1.7-1.8H34v-7.8h18.6v23.6l0.7,0.3c3.1-3.6,7.4-5.6,12.7-5.6
		c9.2,0,18.7,5.9,18.7,24.4c0,18.4-9.6,24.4-18.7,24.4C60.7,77.4,56.5,75.4,53.4,71.7z M72.9,53c0-11.9-5-15.2-10.4-15.2
		c-3.9,0-7.1,1.7-9.8,5v20.3c2.7,3.2,5.8,5,9.8,5C67.9,68.2,72.9,64.8,72.9,53z"/>
	<path class="st0" d="M93.7,53.1c0-15.3,8.6-24.5,21.4-24.5c11.9,0,20.4,7.9,20.4,23.2v2.1l-1.9,2h-28.3c0.6,9.1,5.2,12.5,13.7,12.5
		c4.1,0,7.9-0.9,11.1-2.4h3v8.5c-2.6,1.4-8.1,3-15,3C102.3,77.4,93.7,69.2,93.7,53.1z M105.2,48.6h19.2c-0.5-7.7-3.8-12.1-9.3-12.1
		C109.3,36.5,105.7,40.8,105.2,48.6z"/>
	<path class="st0" d="M142.3,68.7h4.4l1.8-1.8V39.1l-1.8-1.7h-5.2v-7.8h17.8l0.9,4.5l0.7,0.4c3.1-3.6,7.7-5.8,13.9-5.8
		c8.9,0,15.6,5.3,15.6,17.2v21.1l1.7,1.8h4.5v7.8h-24.1v-7.8h4.4l1.8-1.8V46.7c0-6.4-3.1-8.8-7.8-8.8c-4.2,0-8.1,1.7-10.6,4.9v24
		l1.7,1.8h4.5v7.8h-24.1V68.7z"/>
	<path class="st0" d="M198.6,29.5h8.3l1.4-13.2h10.3v13.2h11.2v8.2h-11.2v23.6c0,4.8,2.3,6.8,6.9,6.8c1.2,0,2.6-0.1,4.5-0.3v8.6
		c-2.1,0.6-5.3,1-7.1,1c-10.8,0-16-4.9-16-15.7V37.7h-8.3V29.5z"/>
	<path class="st0" d="M236.6,53c0-16.1,9.3-24.4,22.9-24.4c13.7,0,22.9,8.3,22.9,24.4s-9.3,24.4-22.9,24.4
		C245.9,77.4,236.6,69.1,236.6,53z M270.4,53c0-11.4-4.5-15.8-10.9-15.8c-6.3,0-10.8,4.4-10.8,15.8c0,11.3,4.5,15.8,10.8,15.8
		C265.9,68.8,270.4,64.3,270.4,53z"/>
	<path class="st0" d="M289.1,68.7h4.4l1.8-1.8V39.1l-1.8-1.7h-5.2v-7.8h17.8L307,34l0.7,0.4c3.2-3.6,7.7-5.8,13.9-5.8
		c8.9,0,15.6,5.3,15.6,17.2v21.1l1.7,1.8h4.5v7.8h-24.1v-7.8h4.4l1.8-1.8V46.7c0-6.4-3.1-8.8-7.8-8.8c-4.2,0-8.1,1.7-10.6,4.9v24
		l1.7,1.8h4.5v7.8h-24.1V68.7z"/>
	<path class="st0" d="M348.6,86h9.5V18.8h-9.5v-8.5h21v84.1h-21V86z"/>
</g>
</svg>
