<?xml version="1.0" encoding="utf-8"?>
<!-- Generator: Adobe Illustrator 26.0.3, SVG Export Plug-In . SVG Version: 6.00 Build 0)  -->
<svg version="1.1" id="Layer_1" xmlns="http://www.w3.org/2000/svg" xmlns:xlink="http://www.w3.org/1999/xlink" x="0px" y="0px"
	 viewBox="0 0 250 250" style="enable-background:new 0 0 250 250;" xml:space="preserve">
<style type="text/css">
	.st0{fill-rule:evenodd;clip-rule:evenodd;fill:#B4875E;}
</style>
<path class="st0" d="M0,199.2V50.8C0,22.7,22.7,0,50.8,0h148.4C227.3,0,250,22.7,250,50.8v71.9c0,28.1-22.7,50.8-50.8,50.8h-28.9
	v25.8c0,28.1-22.7,50.8-50.8,50.8H50.8C22.7,250,0,227.3,0,199.2z M78.1,78.9H13.3V50c0-20.3,16.4-37.5,37.5-37.5h27.3V78.9z
	 M199.2,160.9h-27.3V93.7h64.8v29.7C236.7,143.8,220.3,160.9,199.2,160.9z M119.5,237.5H92.2v-61.7H157V200
	C157,220.3,140.6,237.5,119.5,237.5z M92.2,160.9H157V93.7H92.2V160.9z M171.9,78.9h64.8V50.8c0-21.1-17.2-37.5-37.5-37.5h-27.3
	V78.9z M157,78.9H92.2V12.5H157V78.9z M12.5,175v24.2c0,21.1,17.2,37.5,37.5,37.5h28.1V175H12.5z M78.1,160.9H12.5V93.7h65.6V160.9z
	"/>
</svg>
