<?xml version="1.0" encoding="utf-8"?>
<!-- Generator: Adobe Illustrator 26.0.3, SVG Export Plug-In . SVG Version: 6.00 Build 0)  -->
<svg version="1.1" id="Layer_1" xmlns="http://www.w3.org/2000/svg" xmlns:xlink="http://www.w3.org/1999/xlink" x="0px" y="0px"
	 viewBox="0 0 360.4 96" style="enable-background:new 0 0 360.4 96;" xml:space="preserve">
<style type="text/css">
	.st0{fill:#B4875E;}
</style>
<g>
	<path class="st0" d="M17,10.8h12.1l-1,5h-6.5L9.3,80h6.5l-1,5H2.6L17,10.8z"/>
	<path class="st0" d="M41.3,18.3h-8.1l1-5h14.2l-4.2,21.9c-0.5,2.2-1.2,4.1-1.2,4.1h0.2c3.2-5.3,9.6-9.1,16.3-9.1
		c10.7,0,16.7,7,16.7,18.2c0,17.3-12.1,29.2-24.7,29.2c-6.7,0-12.2-3.2-14.2-9.3h-0.2c0,0,0,1.9-0.5,4l-0.8,4.1h-5.8L41.3,18.3z
		 M51.1,72.1c8.8,0,18.8-8.7,18.8-23.3c0-8.1-4.3-13-11.4-13c-11.2,0-18.7,12-18.7,23.6C39.8,66.3,43.2,72.1,51.1,72.1z"/>
	<path class="st0" d="M110.5,30.2c11.2,0,16.3,6.9,16.3,16.4c0,3.5-1.3,7.4-1.3,7.4H90.8c0,0-0.4,1.9-0.4,4.1c0,7.8,4.9,14,14.5,14
		c8.2,0,14.8-5.5,14.8-5.5l1.9,5c0,0-7.5,5.9-17,5.9c-12.4,0-20.5-7.6-20.5-19.1C84.1,43.7,95.2,30.2,110.5,30.2z M120.2,49.4
		c0,0,0.4-1.6,0.4-3.4c0-7.2-4.4-10.7-10.3-10.7c-7.5,0-15.1,4.9-18.4,14.1H120.2z"/>
	<path class="st0" d="M143.5,38.3c0.2-1.1-0.2-2-1.6-2h-6.1l1-5h8.6c3.4,0,4.6,1.4,4.6,3.7c0,1-0.7,5.3-1.5,7.2h0.2
		c1.8-3.9,9-12,20.2-12c7.9,0,12.3,4.1,12.3,11.6c0,5.6-4.2,22-4.2,25.6c0,3.9,2.2,4.2,4.3,4.2c1.4,0,2.2-0.2,2.2-0.2l-1,5
		c0,0-1.8,0.2-3.3,0.2c-3.2,0-8.6-0.9-8.6-7.7c0-4,4.2-20.4,4.2-25.5c0-5.1-2.8-7.6-7.8-7.6c-9.7,0-18.7,9.2-20.7,19.8l-4.1,20.8
		h-6.1L143.5,38.3z"/>
	<path class="st0" d="M196.6,59.1l4.4-22.9h-8.1l1-5h8.3l2.4-12.5h5.9l-2.4,12.5h11.4l-1,5h-11.4l-4.4,23.2c-0.4,1.5-0.5,2.9-0.5,4
		c0,7.1,4.4,8.2,7.8,8.2c1.5,0,2.5-0.2,2.5-0.2l-1.1,5.2c0,0-1,0.2-2.2,0.2c-5.9,0-13.2-2-13.2-12.8C196,62.6,196.2,61,196.6,59.1z"
		/>
	<path class="st0" d="M250.4,30.2c11.9,0,20.2,8.1,20.2,19.5c0,15.7-13.9,27.9-28.3,27.9c-12,0-20.2-8.2-20.2-19.8
		C222,42.3,235.7,30.2,250.4,30.2z M242.7,72.1c10.6,0,21.5-9.7,21.5-22.1c0-8.4-5.9-14.3-14.5-14.3c-10.9,0-21.4,9.7-21.4,22
		C228.3,66.1,234.2,72.1,242.7,72.1z"/>
	<path class="st0" d="M287.5,38.3c0.2-1.1-0.2-2-1.6-2h-6.1l1-5h8.6c3.4,0,4.6,1.4,4.6,3.7c0,1-0.7,5.3-1.5,7.2h0.2
		c1.8-3.9,9-12,20.2-12c7.9,0,12.3,4.1,12.3,11.6c0,5.6-4.2,22-4.2,25.6c0,3.9,2.2,4.2,4.3,4.2c1.4,0,2.2-0.2,2.2-0.2l-1,5
		c0,0-1.8,0.2-3.3,0.2c-3.2,0-8.6-0.9-8.6-7.7c0-4,4.2-20.4,4.2-25.5c0-5.1-2.8-7.6-7.8-7.6c-9.7,0-18.7,9.2-20.7,19.8l-4,20.8h-6.1
		L287.5,38.3z"/>
	<path class="st0" d="M339.6,80L352,15.8h-6.6l1.1-5h12.1L344.2,85h-12.2l1-5H339.6z"/>
</g>
<g>
</g>
<g>
</g>
<g>
</g>
<g>
</g>
<g>
</g>
<g>
</g>
<g>
</g>
<g>
</g>
<g>
</g>
<g>
</g>
<g>
</g>
<g>
</g>
<g>
</g>
<g>
</g>
<g>
</g>
</svg>
